<svg width="138" height="35" viewBox="0 0 138 35" fill="none" xmlns="http://www.w3.org/2000/svg">
<path d="M49.546 31.8085L51.4857 30.3196C51.7503 30.8431 52.0882 31.2261 52.4973 31.467C52.9064 31.708 53.4316 31.8293 54.0727 31.8293C55.3102 31.8293 55.929 31.259 55.929 30.1186C55.929 29.5275 55.7641 29.1046 55.4323 28.8498C55.2675 28.7164 55.1006 28.6176 54.9357 28.5586C54.7708 28.498 54.2783 28.3403 53.46 28.0855C52.1554 27.6972 51.2496 27.1322 50.7408 26.3938C50.2991 25.7491 50.0773 24.8703 50.0773 23.7558C50.0773 22.293 50.4701 21.1993 51.2537 20.4748C51.9498 19.83 52.9003 19.5076 54.1053 19.5076C55.9839 19.5076 57.2988 20.2859 58.0518 21.8423L56.161 23.3121C55.642 22.4264 54.9398 21.9844 54.0564 21.9844C53.5374 21.9844 53.1446 22.1387 52.88 22.4472C52.6357 22.7297 52.5156 23.1041 52.5156 23.5738C52.5156 24.151 52.6988 24.593 53.0631 24.9032C53.3725 25.1719 53.9302 25.4267 54.7383 25.6676C55.5015 25.8964 56.0287 26.0766 56.3218 26.2118C56.6149 26.3453 56.91 26.5273 57.2092 26.7561C57.9826 27.387 58.3694 28.4547 58.3694 29.9574C58.3694 31.4064 58.0478 32.4741 57.4087 33.1587C56.6576 33.9508 55.5402 34.346 54.0605 34.346C51.8562 34.3442 50.352 33.4984 49.546 31.8085ZM60.1727 28.6072V25.2256C60.1727 24.1527 60.248 23.2896 60.3966 22.6396C60.5452 21.9879 60.8037 21.4281 61.168 20.9584C61.5649 20.4488 62.0351 20.0796 62.5765 19.8508C63.1179 19.622 63.8079 19.5094 64.6485 19.5094C65.5441 19.5094 66.2809 19.6446 66.8609 19.9115C67.441 20.1801 67.9295 20.6152 68.3284 21.2201C68.6154 21.6638 68.823 22.1942 68.9513 22.8112C69.0775 23.4282 69.1426 24.2342 69.1426 25.2273V28.6089C69.1426 29.6818 69.0673 30.545 68.9187 31.1949C68.7701 31.8466 68.5116 32.4065 68.1473 32.8762C67.7484 33.3857 67.2762 33.7549 66.7307 33.9837C66.1832 34.2125 65.4891 34.3252 64.6505 34.3252C63.755 34.3252 63.0202 34.1917 62.4462 33.923C61.8722 33.6544 61.3858 33.2193 60.9869 32.6144C60.6999 32.1707 60.4923 31.6421 60.3661 31.0251C60.2358 30.4063 60.1727 29.6003 60.1727 28.6072ZM62.7251 28.3455C62.7251 29.7407 62.8859 30.6871 63.2054 31.1845C63.4924 31.6144 63.9727 31.8293 64.6485 31.8293C65.4219 31.8293 65.9471 31.5416 66.2239 30.9644C66.4661 30.441 66.5882 29.5691 66.5882 28.3472V25.4891C66.5882 24.1077 66.4274 23.1682 66.1079 22.6708C65.8209 22.2271 65.3344 22.007 64.6485 22.007C63.8852 22.007 63.3662 22.2964 63.0894 22.8719C62.8451 23.3953 62.7251 24.2671 62.7251 25.4891V28.3455ZM71.5118 19.7312H74.0641V31.5884H79.0549V34.105H71.5118V19.7312ZM83.2477 19.7295V28.7268C83.2477 29.7737 83.3312 30.4982 83.496 30.9003C83.6406 31.2365 83.8298 31.474 84.068 31.6144C84.3061 31.7548 84.6399 31.8258 85.0714 31.8258C85.5253 31.8258 85.8754 31.7426 86.1237 31.5745C86.372 31.4064 86.5633 31.1291 86.6956 30.7391C86.8279 30.3508 86.8951 29.6783 86.8951 28.7268V19.7295H89.4475V28.7268C89.4475 29.8135 89.3946 30.6368 89.2907 31.1932C89.1849 31.7496 88.9895 32.2435 88.7025 32.6734C88.3158 33.2644 87.8375 33.6873 87.2676 33.9421C86.6977 34.1969 85.967 34.3252 85.0714 34.3252C84.0537 34.3252 83.2314 34.1501 82.6005 33.8017C82.0591 33.4932 81.6174 33.0304 81.2734 32.4134C81.0516 32.0113 80.9009 31.545 80.8175 31.0147C80.734 30.4843 80.6933 29.7234 80.6933 28.7302V19.7295H83.2477ZM94.3568 34.1033V22.2462H91.206V19.7295H100.042V22.2462H96.9071V34.1033H94.3568ZM101.833 34.1033V19.7312H104.385V34.1033H101.833ZM106.775 28.6072V25.2256C106.775 24.1527 106.85 23.2896 106.998 22.6396C107.147 21.9879 107.404 21.4281 107.77 20.9584C108.169 20.4488 108.637 20.0796 109.178 19.8508C109.72 19.622 110.41 19.5094 111.25 19.5094C112.146 19.5094 112.883 19.6446 113.463 19.9115C114.043 20.1801 114.531 20.6152 114.93 21.2201C115.217 21.6638 115.425 22.1942 115.551 22.8112C115.677 23.4282 115.742 24.2342 115.742 25.2273V28.6089C115.742 29.6818 115.667 30.545 115.519 31.1949C115.37 31.8466 115.114 32.4065 114.747 32.8762C114.348 33.3857 113.876 33.7549 113.331 33.9837C112.783 34.2125 112.089 34.3252 111.25 34.3252C110.355 34.3252 109.62 34.1917 109.046 33.923C108.472 33.6544 107.986 33.2193 107.587 32.6144C107.3 32.1707 107.092 31.6421 106.966 31.0251C106.838 30.4063 106.775 29.6003 106.775 28.6072ZM109.327 28.3455C109.327 29.7407 109.488 30.6871 109.807 31.1845C110.094 31.6144 110.575 31.8293 111.25 31.8293C112.024 31.8293 112.549 31.5416 112.826 30.9644C113.068 30.441 113.19 29.5691 113.19 28.3472V25.4891C113.19 24.1077 113.029 23.1682 112.71 22.6708C112.423 22.2271 111.936 22.007 111.25 22.007C110.487 22.007 109.968 22.2964 109.691 22.8719C109.449 23.3953 109.327 24.2671 109.327 25.4891V28.3455ZM118.114 34.1033V19.7312H120.585L124.78 28.9313V19.7312H127.25V34.1033H124.78L120.585 24.9032V34.1033H118.114ZM128.757 31.8085L130.696 30.3196C130.961 30.8431 131.299 31.2261 131.708 31.467C132.117 31.708 132.642 31.8293 133.283 31.8293C134.521 31.8293 135.14 31.259 135.14 30.1186C135.14 29.5275 134.975 29.1046 134.643 28.8498C134.478 28.7164 134.311 28.6176 134.146 28.5586C133.981 28.498 133.489 28.3403 132.671 28.0855C131.366 27.6972 130.46 27.1322 129.951 26.3938C129.51 25.7491 129.288 24.8703 129.288 23.7558C129.288 22.293 129.681 21.1993 130.464 20.4748C131.16 19.83 132.111 19.5076 133.316 19.5076C135.195 19.5076 136.509 20.2859 137.26 21.8423L135.37 23.3121C134.851 22.4264 134.148 21.9844 133.265 21.9844C132.746 21.9844 132.353 22.1387 132.089 22.4472C131.846 22.7297 131.724 23.1041 131.724 23.5738C131.724 24.151 131.907 24.593 132.272 24.9032C132.581 25.1719 133.139 25.4267 133.947 25.6676C134.71 25.8964 135.237 26.0766 135.53 26.2118C135.823 26.3453 136.119 26.5273 136.418 26.7561C137.191 27.387 137.578 28.4547 137.578 29.9574C137.578 31.4064 137.256 32.4741 136.617 33.1587C135.866 33.9508 134.749 34.346 133.269 34.346C131.067 34.3442 129.563 33.4984 128.757 31.8085ZM49.0596 12.9698L51.0217 11.4775C51.2903 12.0009 51.6302 12.384 52.0455 12.6266C52.4586 12.8676 52.9899 12.9889 53.6392 12.9889C54.8909 12.9889 55.5178 12.4187 55.5178 11.2747C55.5178 10.6837 55.3509 10.2608 55.0151 10.0042C54.8482 9.87078 54.6792 9.77198 54.5123 9.71132C54.3454 9.65066 53.8468 9.49293 53.0184 9.23814C51.6974 8.84816 50.7815 8.28486 50.2665 7.54476C49.8188 6.89999 49.5949 6.0195 49.5949 4.90329C49.5949 3.4387 49.9918 2.34329 50.7856 1.61705C51.4898 0.972287 52.4525 0.649902 53.6717 0.649902C55.5728 0.649902 56.9039 1.42986 57.6651 2.98805L55.7519 4.45958C55.2268 3.57216 54.5164 3.13018 53.6208 3.13018C53.0957 3.13018 52.6988 3.28444 52.4301 3.59296C52.1839 3.87547 52.0617 4.25159 52.0617 4.7213C52.0617 5.29847 52.247 5.74218 52.6154 6.05243C52.9288 6.32109 53.4926 6.57587 54.3108 6.81853C55.0822 7.04732 55.6175 7.22931 55.9127 7.36277C56.2098 7.49796 56.509 7.67822 56.8103 7.90701C57.5939 8.53964 57.9847 9.60732 57.9847 11.1118C57.9847 12.5625 57.6611 13.6319 57.0118 14.3166C56.2505 15.1104 55.1209 15.5056 53.6229 15.5056C51.3982 15.5108 49.8758 14.6632 49.0596 12.9698ZM66.3908 12.5677H62.1959L61.4916 15.2681H58.7072L63.0365 0.875225H65.5359L69.8814 15.2681H67.0787L66.3908 12.5677ZM65.77 10.1082L64.3106 4.50464L62.8167 10.1082H65.77ZM70.8381 15.2681V0.875225H73.423V12.748H78.4727V15.2681H70.8381ZM79.9809 9.76505V6.37828C79.9809 5.30367 80.0563 4.44051 80.2069 3.78881C80.3575 3.13711 80.618 2.57554 80.9864 2.10583C81.3894 1.59452 81.8637 1.22534 82.4132 0.996552C82.9607 0.767763 83.6609 0.65337 84.5097 0.65337C85.4154 0.65337 86.1624 0.78856 86.7506 1.05721C87.3368 1.32587 87.8334 1.76265 88.2364 2.36755C88.5275 2.81126 88.7371 3.34163 88.8653 3.9604C88.9936 4.57917 89.0587 5.38513 89.0587 6.38002V9.76678C89.0587 10.8414 88.9834 11.7046 88.8328 12.3563C88.6822 13.008 88.4216 13.5695 88.0532 14.0392C87.6502 14.5505 87.1719 14.9197 86.6183 15.1485C86.0647 15.3773 85.3625 15.4917 84.5117 15.4917C83.6059 15.4917 82.861 15.3565 82.2809 15.0878C81.6988 14.8192 81.2063 14.3824 80.8053 13.7775C80.5142 13.3338 80.3046 12.8034 80.1764 12.1847C80.0461 11.5659 79.9809 10.7599 79.9809 9.76505ZM82.5659 9.50333C82.5659 10.9003 82.7287 11.8484 83.0523 12.3459C83.3434 12.7757 83.8298 12.9906 84.5117 12.9906C85.2953 12.9906 85.8265 12.7012 86.1054 12.124C86.3517 11.6006 86.4738 10.727 86.4738 9.50333V6.64C86.4738 5.25687 86.311 4.31572 85.9873 3.81828C85.6963 3.37457 85.2037 3.15271 84.5117 3.15271C83.7403 3.15271 83.2131 3.44216 82.9343 4.01934C82.688 4.54278 82.5659 5.41633 82.5659 6.64V9.50333Z" fill="url(#paint0_linear_104_11)"/>
<path d="M16.4618 2.06427C16.4618 2.06427 14.9882 3.37981 14.3206 5.10786C13.653 6.8359 13.653 7.99545 13.653 7.99545C13.653 7.99545 12.0878 6.02128 10.0585 6.41646C8.02924 6.81164 6.9566 8.73728 8.58082 10.4636C10.0219 11.9975 23.0462 24.5636 25.9507 27.3627C26.5226 27.9139 27.2696 28.3247 28.1102 28.498C29.9624 28.8793 30.7827 27.8602 30.8987 27.7406C31.0432 27.5933 31.8838 26.0368 31.0432 24.9518C30.2738 23.9569 21.5421 15.6651 20.0888 14.2854C19.9504 14.1554 19.8161 14.0237 19.6899 13.885C17.8519 11.8641 17.6667 9.58137 17.9944 7.71813C18.4748 4.98653 20.2883 2.52705 23.0747 1.11099C23.8421 0.721008 24.7132 0.391691 25.6759 0.206233C26.4718 0.0537077 27.2615 0.00344321 28.0125 0.0190424C31.8655 0.103972 35.4111 1.93255 37.2144 4.834C38.3197 6.61058 38.3278 8.03704 38.3278 8.03704V8.46342H31.0025C30.9801 6.66778 28.5885 6.31593 28.5885 6.31593C25.3055 6.22407 25.1549 8.38889 25.1752 8.90713C25.1976 9.42537 25.2831 10.0545 27.6319 12.1656C29.9807 14.2767 36.2191 20.2374 37.131 21.4402C38.0449 22.6431 39.087 24.0384 38.914 26.7908C38.741 29.5432 37.0231 31.8449 34.7191 33.3251C32.415 34.8053 28.7188 35.4362 25.6535 34.6771C22.5883 33.9179 19.3052 30.4375 18.1532 29.3646C17.0012 28.2918 2.30577 14.0185 2.30577 14.0185C2.30577 14.0185 0.626588 12.2384 0.174736 10.266C-0.51322 7.26055 0.921717 4.1251 2.87771 2.53398C5.33848 0.530349 7.99464 -0.124817 10.6671 0.0190424C14.1985 0.207966 16.4618 2.06427 16.4618 2.06427ZM8.2918 26.0628H1.71348C1.71348 26.0628 2.18365 30.2521 5.00264 32.455C7.97428 34.7776 9.97302 34.8989 12.9304 34.7498C14.6829 34.6615 16.3213 33.8607 16.3213 33.8607L8.2918 26.0628Z" fill="url(#paint1_linear_104_11)"/>
<defs>
<linearGradient id="paint0_linear_104_11" x1="6.16611" y1="12.085" x2="127.053" y2="92.1587" gradientUnits="userSpaceOnUse">
<stop offset="0.00633383" stop-color="#45A0D9"/>
<stop offset="1" stop-color="#3C5DA8"/>
</linearGradient>
<linearGradient id="paint1_linear_104_11" x1="8.53553" y1="3.71108" x2="19.6838" y2="46.0928" gradientUnits="userSpaceOnUse">
<stop offset="0.00633383" stop-color="#44BEDD"/>
<stop offset="1" stop-color="#42A6DC"/>
</linearGradient>
</defs>
</svg>
